<?xml version="1.0" encoding="iso-8859-1"?>
<!-- Generator: Adobe Illustrator 19.0.0, SVG Export Plug-In . SVG Version: 6.00 Build 0)  -->
<svg version="1.1" id="Capa_1" xmlns="http://www.w3.org/2000/svg" xmlns:xlink="http://www.w3.org/1999/xlink" x="0px" y="0px"
	 viewBox="0 0 512 512" style="enable-background:new 0 0 512 512;" xml:space="preserve">
<path style="fill:#E0230D;" d="M256,7.5v45c112.39,0,203.5,91.11,203.5,203.5S368.39,459.5,256,459.5v45
	c137.243,0,248.5-111.257,248.5-248.5S393.243,7.5,256,7.5z"/>
<path style="fill:#FF5440;" d="M256,7.5C118.757,7.5,7.5,118.757,7.5,256S118.757,504.5,256,504.5
	c120.674,0,218.5-111.257,218.5-248.5S376.674,7.5,256,7.5z M256,444.5c-104.106,0-188.5-84.394-188.5-188.5S151.894,67.5,256,67.5
	S444.5,151.894,444.5,256S360.106,444.5,256,444.5z"/>
<path d="M437.02,74.981C388.668,26.629,324.38,0,256,0S123.332,26.629,74.98,74.981S0,187.62,0,256s26.629,132.667,74.98,181.019
	S187.62,512,256,512s132.668-26.629,181.02-74.981S512,324.38,512,256S485.371,123.333,437.02,74.981z M256,497
	C123.112,497,15,388.888,15,256S123.112,15,256,15s241,108.112,241,241S388.888,497,256,497z"/>
<path d="M256,60c-46.574,0-91.721,16.63-127.122,46.826c-3.151,2.688-3.527,7.422-0.839,10.573
	c2.687,3.151,7.421,3.528,10.573,0.839C171.302,90.356,212.991,75,256,75c99.804,0,181,81.196,181,181s-81.196,181-181,181
	S75,355.804,75,256c0-43.009,15.355-84.698,43.238-117.387c2.688-3.151,2.313-7.885-0.839-10.573
	c-3.152-2.689-7.886-2.312-10.573,0.839C76.63,164.28,60,209.426,60,256c0,108.075,87.925,196,196,196s196-87.925,196-196
	S364.075,60,256,60z"/>
</svg>
